<?xml version="1.0" encoding="utf-8"?>
<!-- Generator: Adobe Illustrator 27.0.0, SVG Export Plug-In . SVG Version: 6.00 Build 0)  -->
<svg version="1.1" id="Layer_1" xmlns="http://www.w3.org/2000/svg" xmlns:xlink="http://www.w3.org/1999/xlink" x="0px" y="0px"
	 viewBox="0 0 202.42 59.52" style="enable-background:new 0 0 202.42 59.52;" xml:space="preserve">
<g>
	<path d="M17.88,41.17L10.06,58.7H0L25.6,2.98h11.74L63.04,58.7H52.64L44.6,41.17H17.88z M42.58,35.55l-7.38-16.04
		c-1.68-3.64-2.79-6.94-3.91-10.17h-0.22c-1.12,3.31-2.35,6.7-3.8,10.09L19.9,35.55H42.58z"/>
	<path d="M73.44,31.17c0-4.71-0.11-8.76-0.45-12.48h8.61l0.34,7.85h0.45c2.46-5.37,8.38-8.76,14.98-8.76c1.12,0,1.9,0.08,2.79,0.25
		v6.86c-1.01-0.17-2.01-0.25-3.35-0.25c-6.93,0-11.85,3.89-13.19,9.34c-0.22,0.99-0.45,2.15-0.45,3.39V58.7h-9.72V31.17z"/>
	<path d="M121.39,7.44c0.11,2.48-2.35,4.46-6.26,4.46c-3.46,0-5.92-1.98-5.92-4.46c0-2.56,2.57-4.55,6.15-4.55
		C119.04,2.89,121.39,4.88,121.39,7.44z M110.43,58.7V18.68h9.84V58.7H110.43z"/>
	<path d="M142.06,40.01c0.22,9.84,8.72,13.89,18.55,13.89c7.04,0,11.29-0.91,14.98-2.07l1.68,5.21c-3.46,1.16-9.39,2.48-18,2.48
		c-16.65,0-26.6-8.1-26.6-20.17c0-12.07,9.61-21.58,25.37-21.58c17.66,0,22.35,11.49,22.35,18.85c0,1.49-0.22,2.65-0.34,3.39H142.06
		z M170.9,34.81c0.11-4.63-2.57-11.82-13.64-11.82c-9.95,0-14.31,6.78-15.09,11.82H170.9z"/>
	<path d="M192.58,0h9.84v58.7h-9.84V0z"/>
</g>
</svg>
